<?xml version="1.0" encoding="utf-8"?>
<!-- Generator: Adobe Illustrator 19.2.1, SVG Export Plug-In . SVG Version: 6.00 Build 0)  -->
<!DOCTYPE svg PUBLIC "-//W3C//DTD SVG 1.1//EN" "http://www.w3.org/Graphics/SVG/1.1/DTD/svg11.dtd">
<svg version="1.1" id="Layer_1" xmlns="http://www.w3.org/2000/svg" xmlns:xlink="http://www.w3.org/1999/xlink" x="0px" y="0px"
	 viewBox="0 0 190 116.8" style="enable-background:new 0 0 190 116.8;" xml:space="preserve">
<style type="text/css">
	.st0{fill:#EF4438;}
	.st1{fill:#3C3C42;}
</style>
<path class="st0" d="M17.2,81.1L17.2,81.1c-1.8-1.8-4.4-5.4-4.4-5.4c-3-4.1-5.2-8.6-6.7-13.1C3.4,54,4,45,7.8,37.1
	c3.8-7.8,10.4-13.5,18.4-16.1c0.1,0,0.2-0.1,0.3-0.1c8.3-2.6,17.5-1.4,25.1,3.2l2.1,1.3l1-2.3c3.7-8.3,10.6-14.5,18.9-17.2
	c0.1,0,0.2-0.1,0.3-0.1c33.6-10.4,46.1,28.3,46.1,28.3c-0.4-2.6-1-5.1-1.7-7.4c-6.3-19.7-26.7-31-45.7-25.1c-0.1,0-0.2,0.1-0.3,0.1
	c-8.8,2.8-16.2,9.1-20.6,17.5c-8.4-4.3-18.1-5.1-26.9-2.3c-9.2,2.9-16.7,9.5-21.1,18.4c-4.3,8.9-5,19-2,28.6c1.6,5,4,9.9,7.3,14.4
	c0.1,0.2,2.8,3.9,4.8,5.9c23.3,25.3,66.1,32.4,68,32.7C81.9,116.8,34.2,103.3,17.2,81.1z"/>
<g>
	<path class="st1" d="M74.4,38.3h-2.8V27.2h-3.6v-2.4H78v2.4h-3.6V38.3z"/>
	<path class="st1" d="M89.4,38.3h-2.8v-6c0-1.5-0.6-2.2-1.7-2.2c-0.8,0-1.4,0.3-1.7,0.8c-0.3,0.5-0.5,1.4-0.5,2.6v4.8h-2.8V24h2.8
		v2.9c0,0.2,0,0.8-0.1,1.6l-0.1,0.8h0.1c0.6-1,1.6-1.5,3-1.5c1.2,0,2.1,0.3,2.7,1c0.6,0.6,0.9,1.6,0.9,2.8V38.3z"/>
	<path class="st1" d="M96.9,38.5c-1.7,0-2.9-0.5-3.9-1.4c-0.9-0.9-1.4-2.2-1.4-3.9c0-1.7,0.4-3.1,1.3-4c0.9-0.9,2.1-1.4,3.6-1.4
		c1.5,0,2.6,0.4,3.4,1.2c0.8,0.8,1.2,2,1.2,3.4v1.4h-6.6c0,0.8,0.3,1.4,0.7,1.9c0.4,0.4,1.1,0.7,1.9,0.7c0.6,0,1.2-0.1,1.8-0.2
		c0.6-0.1,1.1-0.3,1.7-0.6v2.2c-0.5,0.2-1,0.4-1.6,0.5C98.4,38.4,97.7,38.5,96.9,38.5z M96.5,29.8c-0.6,0-1.1,0.2-1.4,0.6
		c-0.3,0.4-0.5,0.9-0.6,1.6h3.9c0-0.7-0.2-1.2-0.5-1.6C97.6,30,97.1,29.8,96.5,29.8z"/>
	<path class="st1" d="M51.8,51.1h9v11.8c-1.5,0.5-2.8,0.8-4.1,1s-2.6,0.3-4,0.3c-3.4,0-6.1-1-7.9-3c-1.8-2-2.7-4.9-2.7-8.7
		c0-3.7,1.1-6.5,3.2-8.6c2.1-2.1,5-3.1,8.7-3.1c2.3,0,4.6,0.5,6.8,1.4L59.2,46c-1.7-0.8-3.4-1.2-5.2-1.2c-2.1,0-3.8,0.7-5,2.1
		c-1.3,1.4-1.9,3.3-1.9,5.7c0,2.5,0.5,4.4,1.5,5.7c1,1.3,2.5,2,4.4,2c1,0,2-0.1,3.1-0.3v-4.8h-4.3V51.1z"/>
	<path class="st1" d="M81.8,55.1c0,2.8-0.7,5.1-2.2,6.7c-1.5,1.6-3.6,2.4-6.2,2.4c-1.7,0-3.1-0.4-4.4-1.1c-1.3-0.7-2.3-1.8-2.9-3.2
		c-0.7-1.4-1-3-1-4.8c0-2.8,0.7-5.1,2.2-6.6c1.5-1.6,3.6-2.4,6.3-2.4c1.7,0,3.1,0.4,4.4,1.1c1.3,0.7,2.3,1.8,2.9,3.1
		C81.4,51.7,81.8,53.3,81.8,55.1z M69.7,55.1c0,1.7,0.3,3,0.8,3.9c0.6,0.9,1.5,1.3,2.8,1.3c1.3,0,2.2-0.4,2.7-1.3
		c0.6-0.9,0.8-2.2,0.8-3.9c0-1.7-0.3-3-0.8-3.9c-0.6-0.9-1.5-1.3-2.8-1.3c-1.3,0-2.2,0.4-2.7,1.3C70,52.1,69.7,53.4,69.7,55.1z"/>
	<path class="st1" d="M101.5,55.1c0,2.8-0.7,5.1-2.2,6.7c-1.5,1.6-3.6,2.4-6.2,2.4c-1.7,0-3.1-0.4-4.4-1.1c-1.3-0.7-2.3-1.8-2.9-3.2
		c-0.7-1.4-1-3-1-4.8c0-2.8,0.7-5.1,2.2-6.6c1.5-1.6,3.6-2.4,6.3-2.4c1.7,0,3.1,0.4,4.4,1.1c1.3,0.7,2.3,1.8,2.9,3.1
		C101.2,51.7,101.5,53.3,101.5,55.1z M89.5,55.1c0,1.7,0.3,3,0.8,3.9c0.6,0.9,1.5,1.3,2.8,1.3c1.3,0,2.2-0.4,2.7-1.3
		c0.6-0.9,0.8-2.2,0.8-3.9c0-1.7-0.3-3-0.8-3.9c-0.6-0.9-1.5-1.3-2.8-1.3c-1.3,0-2.2,0.4-2.7,1.3C89.8,52.1,89.5,53.4,89.5,55.1z"/>
	<path class="st1" d="M111,64.2c-2,0-3.7-0.8-4.8-2.4c-1.2-1.6-1.8-3.8-1.8-6.6c0-2.9,0.6-5.1,1.8-6.7c1.2-1.6,2.8-2.4,4.9-2.4
		c2.2,0,3.9,0.9,5,2.6h0.2c-0.2-1.3-0.4-2.5-0.4-3.5v-5.6h4.8v24.2H117l-0.9-2.3h-0.2C114.8,63.3,113.2,64.2,111,64.2z M112.6,60.4
		c1.2,0,2.1-0.4,2.7-1.1c0.6-0.7,0.9-1.9,0.9-3.6v-0.5c0-1.9-0.3-3.2-0.9-4c-0.6-0.8-1.5-1.2-2.8-1.2c-1.1,0-1.9,0.5-2.5,1.3
		c-0.6,0.9-0.9,2.2-0.9,3.9s0.3,3,0.9,3.9C110.7,60,111.5,60.4,112.6,60.4z"/>
	<path class="st1" d="M43,78.2c0,2.1-0.7,3.7-2.2,4.9s-3.5,1.8-6.2,1.8c-2.4,0-4.6-0.5-6.5-1.4v-4.5c1.5,0.7,2.8,1.2,3.9,1.4
		c1.1,0.3,2,0.4,2.9,0.4c1.1,0,1.9-0.2,2.4-0.6c0.6-0.4,0.8-1,0.8-1.8c0-0.4-0.1-0.8-0.4-1.2c-0.2-0.3-0.6-0.7-1.1-1
		c-0.5-0.3-1.5-0.8-3-1.5c-1.4-0.7-2.4-1.3-3.1-1.9c-0.7-0.6-1.3-1.3-1.7-2.1c-0.4-0.8-0.6-1.7-0.6-2.8c0-2,0.7-3.6,2-4.8
		c1.4-1.2,3.3-1.7,5.7-1.7c1.2,0,2.3,0.1,3.4,0.4c1.1,0.3,2.2,0.7,3.4,1.2l-1.6,3.8c-1.2-0.5-2.2-0.8-3-1c-0.8-0.2-1.6-0.3-2.3-0.3
		c-0.9,0-1.6,0.2-2.1,0.6c-0.5,0.4-0.7,1-0.7,1.7c0,0.4,0.1,0.8,0.3,1.1c0.2,0.3,0.5,0.6,0.9,0.9c0.4,0.3,1.5,0.8,3.1,1.6
		c2.1,1,3.6,2,4.4,3.1C42.6,75.4,43,76.7,43,78.2z"/>
	<path class="st1" d="M57.8,84.5l-0.9-2.4h-0.1c-0.8,1-1.6,1.7-2.5,2.1c-0.8,0.4-2,0.6-3.3,0.6c-1.7,0-3-0.5-4-1.4
		c-1-1-1.4-2.3-1.4-4.1c0-1.8,0.6-3.2,1.9-4.1c1.3-0.9,3.2-1.4,5.9-1.5l3-0.1v-0.8c0-1.8-0.9-2.6-2.7-2.6c-1.4,0-3,0.4-4.9,1.3
		l-1.6-3.2c2-1,4.2-1.6,6.7-1.6c2.3,0,4.1,0.5,5.4,1.5c1.2,1,1.9,2.6,1.9,4.6v11.6H57.8z M56.4,76.4l-1.8,0.1
		c-1.4,0-2.4,0.3-3.1,0.7c-0.7,0.5-1,1.2-1,2.1c0,1.3,0.8,2,2.3,2c1.1,0,2-0.3,2.6-1c0.7-0.6,1-1.5,1-2.5V76.4z"/>
	<path class="st1" d="M81.6,84.5h-4.8V74.3c0-1.3-0.2-2.2-0.6-2.8c-0.4-0.6-1.1-0.9-2-0.9c-1.2,0-2.1,0.4-2.6,1.3
		c-0.6,0.9-0.8,2.4-0.8,4.4v8.2H66V67.1h3.6l0.6,2.2h0.3c0.5-0.8,1.1-1.4,2-1.9c0.9-0.5,1.9-0.7,3-0.7c2.6,0,4.4,0.9,5.3,2.6h0.4
		c0.5-0.8,1.2-1.4,2.1-1.9c0.9-0.4,1.9-0.7,3.1-0.7c2,0,3.5,0.5,4.5,1.5c1,1,1.5,2.6,1.5,4.9v11.4h-4.8V74.3c0-1.3-0.2-2.2-0.6-2.8
		c-0.4-0.6-1.1-0.9-2-0.9c-1.2,0-2,0.4-2.6,1.2c-0.6,0.8-0.9,2.2-0.9,4V84.5z"/>
	<path class="st1" d="M108.4,84.5l-0.9-2.4h-0.1c-0.8,1-1.6,1.7-2.5,2.1c-0.8,0.4-2,0.6-3.3,0.6c-1.7,0-3-0.5-4-1.4
		c-1-1-1.4-2.3-1.4-4.1c0-1.8,0.6-3.2,1.9-4.1c1.3-0.9,3.2-1.4,5.9-1.5l3-0.1v-0.8c0-1.8-0.9-2.6-2.7-2.6c-1.4,0-3,0.4-4.9,1.3
		l-1.6-3.2c2-1,4.2-1.6,6.7-1.6c2.3,0,4.1,0.5,5.4,1.5c1.2,1,1.9,2.6,1.9,4.6v11.6H108.4z M107,76.4l-1.8,0.1
		c-1.4,0-2.4,0.3-3.1,0.7c-0.7,0.5-1,1.2-1,2.1c0,1.3,0.8,2,2.3,2c1.1,0,2-0.3,2.6-1c0.7-0.6,1-1.5,1-2.5V76.4z"/>
	<path class="st1" d="M126.3,66.7c0.6,0,1.2,0,1.6,0.1l-0.4,4.5c-0.4-0.1-0.9-0.2-1.4-0.2c-1.5,0-2.7,0.4-3.5,1.2
		c-0.8,0.8-1.3,1.9-1.3,3.3v8.9h-4.8V67.1h3.6l0.7,2.9h0.2c0.5-1,1.3-1.8,2.2-2.4C124.2,67,125.2,66.7,126.3,66.7z"/>
	<path class="st1" d="M130.9,62.6c0-1.5,0.9-2.3,2.6-2.3c1.7,0,2.6,0.8,2.6,2.3c0,0.7-0.2,1.3-0.6,1.7c-0.4,0.4-1.1,0.6-1.9,0.6
		C131.7,64.9,130.9,64.1,130.9,62.6z M135.8,84.5h-4.8V67.1h4.8V84.5z"/>
	<path class="st1" d="M148.2,81c0.8,0,1.8-0.2,3-0.5V84c-1.2,0.5-2.6,0.8-4.4,0.8c-1.9,0-3.3-0.5-4.2-1.4c-0.9-1-1.3-2.4-1.3-4.3
		v-8.4h-2.3v-2l2.6-1.6l1.4-3.7h3v3.7h4.9v3.6h-4.9V79c0,0.7,0.2,1.2,0.6,1.5C147,80.9,147.5,81,148.2,81z"/>
	<path class="st1" d="M165.7,84.5l-0.9-2.4h-0.1c-0.8,1-1.6,1.7-2.5,2.1c-0.8,0.4-2,0.6-3.3,0.6c-1.7,0-3-0.5-4-1.4
		c-1-1-1.4-2.3-1.4-4.1c0-1.8,0.6-3.2,1.9-4.1c1.3-0.9,3.2-1.4,5.9-1.5l3-0.1v-0.8c0-1.8-0.9-2.6-2.7-2.6c-1.4,0-3,0.4-4.9,1.3
		l-1.6-3.2c2-1,4.2-1.6,6.7-1.6c2.3,0,4.1,0.5,5.4,1.5c1.2,1,1.9,2.6,1.9,4.6v11.6H165.7z M164.3,76.4l-1.8,0.1
		c-1.4,0-2.4,0.3-3.1,0.7c-0.7,0.5-1,1.2-1,2.1c0,1.3,0.8,2,2.3,2c1.1,0,2-0.3,2.6-1c0.7-0.6,1-1.5,1-2.5V76.4z"/>
	<path class="st1" d="M190,84.5h-4.8V74.3c0-1.3-0.2-2.2-0.7-2.8s-1.2-0.9-2.1-0.9c-1.3,0-2.3,0.4-2.9,1.3c-0.6,0.9-0.9,2.4-0.9,4.4
		v8.2h-4.8V67.1h3.6l0.6,2.2h0.3c0.5-0.8,1.3-1.5,2.2-1.9c0.9-0.4,2-0.6,3.2-0.6c2,0,3.6,0.5,4.6,1.6c1,1.1,1.6,2.7,1.6,4.7V84.5z"
		/>
	<path class="st1" d="M70.6,101.6h-2.2V91.2h5.9V93h-3.8v2.7h3.5v1.8h-3.5V101.6z"/>
	<path class="st1" d="M83.4,97.6c0,1.3-0.3,2.3-1,3s-1.6,1.1-2.8,1.1c-0.8,0-1.4-0.2-2-0.5c-0.6-0.3-1-0.8-1.3-1.4s-0.5-1.3-0.5-2.2
		c0-1.3,0.3-2.3,1-3c0.7-0.7,1.6-1.1,2.8-1.1c0.8,0,1.4,0.2,2,0.5c0.6,0.3,1,0.8,1.3,1.4C83.3,96,83.4,96.8,83.4,97.6z M78,97.6
		c0,0.8,0.1,1.4,0.4,1.8c0.3,0.4,0.7,0.6,1.3,0.6c0.6,0,1-0.2,1.2-0.6c0.3-0.4,0.4-1,0.4-1.8c0-0.8-0.1-1.4-0.4-1.8
		s-0.7-0.6-1.3-0.6c-0.6,0-1,0.2-1.2,0.6C78.1,96.2,78,96.8,78,97.6z"/>
	<path class="st1" d="M90.8,101.6l-0.3-1h-0.1c-0.2,0.4-0.6,0.7-1,0.9c-0.4,0.2-0.9,0.3-1.5,0.3c-0.9,0-1.6-0.2-2.1-0.7
		c-0.5-0.5-0.7-1.2-0.7-2.1v-5.2h2.2v4.6c0,0.6,0.1,1,0.3,1.3c0.2,0.3,0.5,0.4,1,0.4c0.6,0,1-0.2,1.3-0.6c0.3-0.4,0.4-1.1,0.4-2
		v-3.7h2.2v7.9H90.8z"/>
	<path class="st1" d="M102,101.6h-2.2v-4.6c0-0.6-0.1-1-0.3-1.3c-0.2-0.3-0.5-0.4-1-0.4c-0.6,0-1,0.2-1.3,0.6
		c-0.3,0.4-0.4,1.1-0.4,2v3.7h-2.2v-7.9h1.6l0.3,1h0.1c0.2-0.4,0.6-0.7,1-0.9c0.4-0.2,0.9-0.3,1.4-0.3c0.9,0,1.6,0.2,2.1,0.7
		c0.5,0.5,0.7,1.2,0.7,2.2V101.6z"/>
	<path class="st1" d="M106.8,101.7c-0.9,0-1.7-0.4-2.2-1.1c-0.5-0.7-0.8-1.7-0.8-3c0-1.3,0.3-2.3,0.8-3c0.5-0.7,1.3-1.1,2.2-1.1
		c1,0,1.8,0.4,2.3,1.2h0.1c-0.1-0.6-0.2-1.1-0.2-1.6v-2.5h2.2v11h-1.7l-0.4-1H109C108.5,101.3,107.8,101.7,106.8,101.7z M107.5,100
		c0.6,0,1-0.2,1.2-0.5s0.4-0.9,0.4-1.6v-0.2c0-0.8-0.1-1.5-0.4-1.8c-0.3-0.4-0.7-0.6-1.3-0.6c-0.5,0-0.9,0.2-1.1,0.6
		c-0.3,0.4-0.4,1-0.4,1.8c0,0.8,0.1,1.4,0.4,1.8C106.6,99.8,107,100,107.5,100z"/>
	<path class="st1" d="M118.5,101.6l-0.4-1.1H118c-0.4,0.5-0.7,0.8-1.1,1c-0.4,0.2-0.9,0.3-1.5,0.3c-0.8,0-1.4-0.2-1.8-0.7
		c-0.4-0.4-0.7-1.1-0.7-1.9c0-0.8,0.3-1.5,0.9-1.9c0.6-0.4,1.5-0.6,2.7-0.7l1.4,0v-0.3c0-0.8-0.4-1.2-1.2-1.2
		c-0.6,0-1.4,0.2-2.2,0.6l-0.7-1.5c0.9-0.5,1.9-0.7,3-0.7c1.1,0,1.9,0.2,2.4,0.7c0.6,0.5,0.8,1.2,0.8,2.1v5.3H118.5z M117.8,97.9
		l-0.8,0c-0.6,0-1.1,0.1-1.4,0.3c-0.3,0.2-0.5,0.5-0.5,0.9c0,0.6,0.3,0.9,1,0.9c0.5,0,0.9-0.1,1.2-0.4s0.4-0.7,0.4-1.1V97.9z"/>
	<path class="st1" d="M125.5,100c0.4,0,0.8-0.1,1.4-0.2v1.6c-0.5,0.2-1.2,0.4-2,0.4c-0.9,0-1.5-0.2-1.9-0.7c-0.4-0.4-0.6-1.1-0.6-2
		v-3.8h-1v-0.9l1.2-0.7l0.6-1.7h1.4v1.7h2.2v1.6h-2.2v3.8c0,0.3,0.1,0.5,0.3,0.7S125.2,100,125.5,100z"/>
	<path class="st1" d="M128.4,91.6c0-0.7,0.4-1.1,1.2-1.1s1.2,0.4,1.2,1.1c0,0.3-0.1,0.6-0.3,0.8s-0.5,0.3-0.9,0.3
		C128.8,92.7,128.4,92.3,128.4,91.6z M130.6,101.6h-2.2v-7.9h2.2V101.6z"/>
	<path class="st1" d="M140.1,97.6c0,1.3-0.3,2.3-1,3c-0.7,0.7-1.6,1.1-2.8,1.1c-0.8,0-1.4-0.2-2-0.5c-0.6-0.3-1-0.8-1.3-1.4
		c-0.3-0.6-0.5-1.3-0.5-2.2c0-1.3,0.3-2.3,1-3s1.6-1.1,2.8-1.1c0.8,0,1.4,0.2,2,0.5c0.6,0.3,1,0.8,1.3,1.4
		C139.9,96,140.1,96.8,140.1,97.6z M134.6,97.6c0,0.8,0.1,1.4,0.4,1.8c0.3,0.4,0.7,0.6,1.3,0.6c0.6,0,1-0.2,1.2-0.6
		c0.3-0.4,0.4-1,0.4-1.8c0-0.8-0.1-1.4-0.4-1.8s-0.7-0.6-1.3-0.6c-0.6,0-1,0.2-1.2,0.6C134.8,96.2,134.6,96.8,134.6,97.6z"/>
	<path class="st1" d="M149.2,101.6H147v-4.6c0-0.6-0.1-1-0.3-1.3c-0.2-0.3-0.5-0.4-1-0.4c-0.6,0-1,0.2-1.3,0.6
		c-0.3,0.4-0.4,1.1-0.4,2v3.7h-2.2v-7.9h1.6l0.3,1h0.1c0.2-0.4,0.6-0.7,1-0.9c0.4-0.2,0.9-0.3,1.4-0.3c0.9,0,1.6,0.2,2.1,0.7
		c0.5,0.5,0.7,1.2,0.7,2.2V101.6z"/>
</g>
</svg>
